<svg width="220" height="72" viewBox="0 0 220 72" fill="none" xmlns="http://www.w3.org/2000/svg">
<path d="M203.085 36.6612H219.999V44.4064H192.221V37.2144L209.022 13.315H192.221V5.56982H219.999V12.7618L203.085 36.6612Z" fill="black"/>
<path d="M181.473 5.56982V44.4064H171.896V5.56982H181.473Z" fill="black"/>
<path d="M154.3 24.4902C156.577 24.9697 158.407 26.0946 159.788 27.8649C161.169 29.5983 161.86 31.59 161.86 33.8398C161.86 37.0854 160.703 39.6671 158.388 41.5849C156.11 43.4659 152.918 44.4064 148.811 44.4064H130.498V5.56982H148.195C152.19 5.56982 155.308 6.47343 157.548 8.28064C159.825 10.0878 160.964 12.5405 160.964 15.6386C160.964 17.9252 160.348 19.8247 159.116 21.3368C157.921 22.849 156.316 23.9001 154.3 24.4902ZM140.075 21.2815H146.347C147.915 21.2815 149.11 20.9496 149.931 20.2857C150.79 19.5849 151.219 18.5707 151.219 17.2429C151.219 15.9152 150.79 14.9009 149.931 14.2002C149.11 13.4994 147.915 13.149 146.347 13.149H140.075V21.2815ZM147.131 36.7719C148.737 36.7719 149.969 36.4215 150.827 35.7207C151.723 34.9831 152.172 33.932 152.172 32.5673C152.172 31.2027 151.705 30.1331 150.771 29.3586C149.875 28.5841 148.625 28.1968 147.019 28.1968H140.075V36.7719H147.131Z" fill="black"/>
<path d="M109.2 37.5464H94.5272L92.1751 44.4064H82.1504L96.3754 5.56982H107.464L121.689 44.4064H111.552L109.2 37.5464ZM106.736 30.2438L101.864 16.0258L97.0474 30.2438H106.736Z" fill="black"/>
<path d="M215.532 55.6486C216.388 55.6486 217.152 55.8255 217.823 56.1794C218.508 56.5333 219.041 57.0576 219.423 57.7523C219.805 58.4471 219.996 59.2859 219.996 60.269V66.659H217.764V60.6033C217.764 59.6333 217.521 58.8927 217.033 58.3815C216.546 57.8572 215.881 57.5951 215.038 57.5951C214.196 57.5951 213.524 57.8572 213.024 58.3815C212.536 58.8927 212.293 59.6333 212.293 60.6033V66.659H210.041V55.8255H212.293V57.0642C212.661 56.6185 213.129 56.2712 213.695 56.0221C214.275 55.7731 214.887 55.6486 215.532 55.6486Z" fill="black"/>
<path d="M202.167 66.836C201.14 66.836 200.212 66.6066 199.382 66.1478C198.553 65.6759 197.901 65.0206 197.427 64.1817C196.953 63.3297 196.716 62.3466 196.716 61.2324C196.716 60.1314 196.959 59.1549 197.447 58.3029C197.934 57.4509 198.599 56.7955 199.442 56.3367C200.284 55.8779 201.226 55.6486 202.266 55.6486C203.306 55.6486 204.248 55.8779 205.091 56.3367C205.933 56.7955 206.598 57.4509 207.086 58.3029C207.573 59.1549 207.817 60.1314 207.817 61.2324C207.817 62.3335 207.566 63.31 207.066 64.162C206.566 65.014 205.881 65.6759 205.012 66.1478C204.156 66.6066 203.208 66.836 202.167 66.836ZM202.167 64.8895C202.747 64.8895 203.287 64.7519 203.787 64.4766C204.301 64.2013 204.715 63.7884 205.031 63.2379C205.348 62.6874 205.506 62.0189 205.506 61.2324C205.506 60.446 205.354 59.784 205.051 59.2466C204.748 58.6961 204.347 58.2832 203.846 58.0079C203.346 57.7327 202.806 57.5951 202.227 57.5951C201.647 57.5951 201.107 57.7327 200.607 58.0079C200.12 58.2832 199.731 58.6961 199.442 59.2466C199.152 59.784 199.007 60.446 199.007 61.2324C199.007 62.399 199.303 63.3035 199.896 63.9457C200.502 64.5749 201.259 64.8895 202.167 64.8895Z" fill="black"/>
<path d="M193.383 54.3901C192.975 54.3901 192.633 54.2525 192.356 53.9772C192.08 53.702 191.941 53.3612 191.941 52.9548C191.941 52.5485 192.08 52.2077 192.356 51.9324C192.633 51.6572 192.975 51.5195 193.383 51.5195C193.778 51.5195 194.114 51.6572 194.391 51.9324C194.667 52.2077 194.805 52.5485 194.805 52.9548C194.805 53.3612 194.667 53.702 194.391 53.9772C194.114 54.2525 193.778 54.3901 193.383 54.3901ZM194.489 55.8254V66.6589H192.238V55.8254H194.489Z" fill="black"/>
<path d="M187.514 57.653V63.6498C187.514 64.0561 187.607 64.351 187.791 64.5346C187.988 64.705 188.318 64.7902 188.779 64.7902H190.161V66.658H188.383C187.37 66.658 186.593 66.4221 186.053 65.9502C185.513 65.4783 185.243 64.7115 185.243 63.6498V57.653H183.959V55.8245H185.243V53.1309H187.514V55.8245H190.161V57.653H187.514Z" fill="black"/>
<path d="M181.918 55.8245V66.658H179.666V65.38C179.311 65.8256 178.843 66.1795 178.264 66.4417C177.698 66.6907 177.092 66.8153 176.447 66.8153C175.591 66.8153 174.82 66.6383 174.136 66.2844C173.464 65.9305 172.931 65.4062 172.536 64.7115C172.154 64.0168 171.963 63.1779 171.963 62.1948V55.8245H174.195V61.8606C174.195 62.8305 174.438 63.5777 174.926 64.102C175.413 64.6132 176.078 64.8688 176.921 64.8688C177.763 64.8688 178.428 64.6132 178.916 64.102C179.416 63.5777 179.666 62.8305 179.666 61.8606V55.8245H181.918Z" fill="black"/>
<path d="M160.927 57.4373C161.308 56.913 161.829 56.487 162.487 56.1593C163.159 55.8185 163.903 55.6481 164.719 55.6481C165.68 55.6481 166.549 55.8775 167.326 56.3362C168.103 56.795 168.715 57.4504 169.163 58.3024C169.611 59.1413 169.835 60.1047 169.835 61.1926C169.835 62.2806 169.611 63.2571 169.163 64.1222C168.715 64.9742 168.097 65.6427 167.307 66.1277C166.53 66.5996 165.667 66.8355 164.719 66.8355C163.876 66.8355 163.126 66.6717 162.467 66.344C161.822 66.0163 161.308 65.5968 160.927 65.0856V66.6586H158.675V52.109H160.927V57.4373ZM167.544 61.1926C167.544 60.4455 167.386 59.8032 167.069 59.2658C166.767 58.7153 166.358 58.3024 165.845 58.0271C165.344 57.7388 164.805 57.5946 164.225 57.5946C163.659 57.5946 163.119 57.7388 162.605 58.0271C162.105 58.3155 161.697 58.735 161.381 59.2855C161.078 59.836 160.927 60.4848 160.927 61.232C160.927 61.9791 161.078 62.6345 161.381 63.1981C161.697 63.7486 162.105 64.1681 162.605 64.4565C163.119 64.7448 163.659 64.889 164.225 64.889C164.805 64.889 165.344 64.7448 165.845 64.4565C166.358 64.155 166.767 63.7224 167.069 63.1588C167.386 62.5952 167.544 61.9398 167.544 61.1926Z" fill="black"/>
<path d="M154.612 54.3901C154.204 54.3901 153.861 54.2525 153.585 53.9772C153.308 53.702 153.17 53.3612 153.17 52.9548C153.17 52.5485 153.308 52.2077 153.585 51.9324C153.861 51.6572 154.204 51.5195 154.612 51.5195C155.007 51.5195 155.343 51.6572 155.619 51.9324C155.896 52.2077 156.034 52.5485 156.034 52.9548C156.034 53.3612 155.896 53.702 155.619 53.9772C155.343 54.2525 155.007 54.3901 154.612 54.3901ZM155.718 55.8254V66.6589H153.466V55.8254H155.718Z" fill="black"/>
<path d="M148.138 57.3984C148.468 56.8479 148.902 56.4219 149.442 56.1204C149.995 55.8059 150.647 55.6486 151.398 55.6486V57.9686H150.825C149.942 57.9686 149.271 58.1915 148.81 58.6371C148.362 59.0828 148.138 59.8561 148.138 60.9572V66.659H145.887V55.8255H148.138V57.3984Z" fill="black"/>
<path d="M141.163 57.653V63.6498C141.163 64.0561 141.255 64.351 141.439 64.5346C141.637 64.705 141.966 64.7902 142.427 64.7902H143.81V66.658H142.032C141.018 66.658 140.241 66.4221 139.701 65.9502C139.161 65.4783 138.891 64.7115 138.891 63.6498V57.653H137.607V55.8245H138.891V53.1309H141.163V55.8245H143.81V57.653H141.163Z" fill="black"/>
<path d="M131.937 66.836C131.081 66.836 130.31 66.6852 129.626 66.3838C128.954 66.0692 128.421 65.6497 128.026 65.1254C127.631 64.588 127.42 63.9916 127.394 63.3362H129.724C129.764 63.795 129.981 64.1817 130.376 64.4963C130.784 64.7977 131.291 64.9485 131.897 64.9485C132.529 64.9485 133.016 64.8305 133.359 64.5946C133.714 64.3455 133.892 64.0309 133.892 63.6508C133.892 63.2445 133.694 62.943 133.299 62.7464C132.918 62.5498 132.305 62.3335 131.463 62.0975C130.646 61.8747 129.981 61.6584 129.468 61.4487C128.954 61.239 128.506 60.9179 128.124 60.4853C127.756 60.0527 127.571 59.4826 127.571 58.7747C127.571 58.198 127.743 57.6737 128.085 57.2018C128.427 56.7168 128.914 56.3367 129.547 56.0615C130.192 55.7862 130.929 55.6486 131.759 55.6486C132.997 55.6486 133.991 55.9631 134.741 56.5923C135.505 57.2084 135.913 58.0538 135.966 59.1287H133.714C133.675 58.6437 133.477 58.257 133.122 57.9686C132.766 57.6803 132.286 57.5361 131.68 57.5361C131.087 57.5361 130.633 57.6475 130.317 57.8703C130.001 58.0931 129.843 58.3881 129.843 58.7551C129.843 59.0435 129.948 59.2859 130.159 59.4826C130.37 59.6792 130.626 59.8365 130.929 59.9544C131.232 60.0593 131.68 60.1969 132.272 60.3673C133.062 60.5771 133.708 60.7933 134.208 61.0162C134.722 61.2259 135.163 61.5405 135.531 61.9599C135.9 62.3794 136.091 62.9364 136.104 63.6311C136.104 64.2472 135.933 64.7977 135.591 65.2827C135.248 65.7677 134.761 66.1478 134.129 66.4231C133.51 66.6983 132.779 66.836 131.937 66.836Z" fill="black"/>
<path d="M123.924 54.3901C123.516 54.3901 123.174 54.2525 122.897 53.9772C122.621 53.702 122.482 53.3612 122.482 52.9548C122.482 52.5485 122.621 52.2077 122.897 51.9324C123.174 51.6572 123.516 51.5195 123.924 51.5195C124.319 51.5195 124.655 51.6572 124.932 51.9324C125.208 52.2077 125.346 52.5485 125.346 52.9548C125.346 53.3612 125.208 53.702 124.932 53.9772C124.655 54.2525 124.319 54.3901 123.924 54.3901ZM125.03 55.8254V66.6589H122.779V55.8254H125.03Z" fill="black"/>
<path d="M108.641 61.1926C108.641 60.1047 108.864 59.1413 109.312 58.3024C109.773 57.4635 110.392 56.8147 111.169 56.3559C111.959 55.884 112.835 55.6481 113.796 55.6481C114.507 55.6481 115.205 55.8054 115.89 56.12C116.588 56.4214 117.141 56.8278 117.549 57.339V52.109H119.82V66.6586H117.549V65.0266C117.18 65.551 116.667 65.9835 116.008 66.3243C115.363 66.6651 114.619 66.8355 113.776 66.8355C112.828 66.8355 111.959 66.5996 111.169 66.1277C110.392 65.6427 109.773 64.9742 109.312 64.1222C108.864 63.2571 108.641 62.2806 108.641 61.1926ZM117.549 61.232C117.549 60.4848 117.391 59.836 117.075 59.2855C116.772 58.735 116.37 58.3155 115.87 58.0271C115.37 57.7388 114.83 57.5946 114.25 57.5946C113.671 57.5946 113.131 57.7388 112.631 58.0271C112.13 58.3024 111.722 58.7153 111.406 59.2658C111.103 59.8032 110.952 60.4455 110.952 61.1926C110.952 61.9398 111.103 62.5952 111.406 63.1588C111.722 63.7224 112.13 64.155 112.631 64.4565C113.144 64.7448 113.684 64.889 114.25 64.889C114.83 64.889 115.37 64.7448 115.87 64.4565C116.37 64.1681 116.772 63.7486 117.075 63.1981C117.391 62.6345 117.549 61.9791 117.549 61.232Z" fill="black"/>
<path d="M0 18.9367C0 8.47825 8.47825 0 18.9367 0H52.0759C62.5344 0 71.0126 8.47825 71.0126 18.9367V52.0759C71.0126 62.5344 62.5344 71.0126 52.0759 71.0126H18.9367C8.47825 71.0126 0 62.5344 0 52.0759V18.9367Z" fill="#3B81F4"/>
<path d="M21.377 54.6925H56.52C59.1283 54.6925 61.2332 52.591 61.2332 49.9868C61.2332 47.3826 59.1283 45.281 56.52 45.281H27.7375L21.377 54.6925Z" fill="url(#paint0_linear_2904_917)"/>
<path d="M49.0618 44.0483L34.4646 23.215C32.9545 21.0677 33.5037 18.1438 35.6086 16.6361C37.7593 15.1284 40.6879 15.6767 42.1979 17.7783L60.7304 44.2311L49.0618 44.0483Z" fill="url(#paint1_linear_2904_917)"/>
<path d="M30.9422 21.7529L13.4622 46.6523C11.9979 48.7539 12.5012 51.6779 14.6062 53.1399C16.7111 54.6019 19.6397 54.0993 21.104 51.9977L36.9367 29.4284L30.9422 21.7529Z" fill="url(#paint2_linear_2904_917)"/>
<defs>
<linearGradient id="paint0_linear_2904_917" x1="52.4474" y1="71.6881" x2="10.3311" y2="49.9783" gradientUnits="userSpaceOnUse">
<stop offset="0.165372" stop-color="white"/>
<stop offset="0.568606" stop-color="white" stop-opacity="0.6"/>
<stop offset="0.718278" stop-color="white" stop-opacity="0"/>
</linearGradient>
<linearGradient id="paint1_linear_2904_917" x1="39.4066" y1="14.5802" x2="49.4429" y2="68.4966" gradientUnits="userSpaceOnUse">
<stop offset="0.103037" stop-color="white"/>
<stop offset="0.436149" stop-color="white" stop-opacity="0.6"/>
<stop offset="0.575776" stop-color="white" stop-opacity="0"/>
</linearGradient>
<linearGradient id="paint2_linear_2904_917" x1="18.5872" y1="54.7846" x2="61.2672" y2="12.6152" gradientUnits="userSpaceOnUse">
<stop offset="0.0771973" stop-color="white"/>
<stop offset="0.332373" stop-color="white" stop-opacity="0.6"/>
<stop offset="0.51343" stop-color="white" stop-opacity="0"/>
</linearGradient>
</defs>
</svg>
